<svg xmlns="http://www.w3.org/2000/svg" width="64" height="64" viewBox="0 0 64 64" role="img" aria-label="PathMates">
  <!-- Favicon: navy rounded square + white geometric P mark + orange arrow
       accent. White-on-navy stays sharp in light AND dark browser UI. -->
  <rect x="2" y="2" width="60" height="60" rx="14" fill="#071B3A"/>
  <path
    d="M 13 57 L 13 7 L 52 7 A 6 6 0 0 1 58 13 L 58 29 A 6 6 0 0 1 52 35 L 26 35 L 26 57 Z
       M 32 14 L 45 14 A 5 5 0 0 1 50 19 L 50 25 A 5 5 0 0 1 45 30 L 32 30 Z"
    fill="#FFFFFF" fill-rule="evenodd"
  />
  <path
    d="M 38.5 18.5 L 43.5 18.5 L 43.5 15 L 48.5 20 L 43.5 25 L 43.5 21.5 L 38.5 21.5 Z"
    fill="#FF7A3D"
  />
</svg>
