<svg xmlns="http://www.w3.org/2000/svg" width="166" height="24" viewBox="0 0 166 24" role="img" aria-label="PathMates">
  <!--
    PathMates logo lockup — brand mark + "PathMates" wordmark.
    Fixed navy/orange version (for static contexts like docs, emails, OG).
    The app navbar renders the adaptive React version (mark inherits
    currentColor, "Path" in the text color, "Mates" in the accent color).
  -->
  <g transform="translate(0,0) scale(0.375)">
    <path
      d="M 13 57 L 13 7 L 52 7 A 6 6 0 0 1 58 13 L 58 29 A 6 6 0 0 1 52 35 L 26 35 L 26 57 Z
         M 32 14 L 45 14 A 5 5 0 0 1 50 19 L 50 25 A 5 5 0 0 1 45 30 L 32 30 Z"
      fill="#071B3A" fill-rule="evenodd"
    />
    <path d="M 38.5 18.5 L 43.5 18.5 L 43.5 15 L 48.5 20 L 43.5 25 L 43.5 21.5 L 38.5 21.5 Z" fill="#FF7A3D"/>
  </g>
  <text
    x="36" y="21"
    font-family="Inter, 'Inter Fallback', Arial, sans-serif"
    font-weight="800" font-size="24"
    fill="#071B3A"
  >Path<tspan fill="#FF7A3D">Mates</tspan></text>
</svg>
